<?xml version="1.0" encoding="UTF-8"?>
<svg version="1.1" xmlns="http://www.w3.org/2000/svg" width="837" height="145">
<path d="M0 0 C1.33732178 -0.01073296 1.33732178 -0.01073296 2.70166016 -0.02168274 C4.14968018 -0.02571609 4.14968018 -0.02571609 5.62695312 -0.02983093 C6.65353027 -0.03640213 7.68010742 -0.04297333 8.73779297 -0.04974365 C12.12793047 -0.06942285 15.51802388 -0.08112415 18.90820312 -0.09111023 C20.06682861 -0.09518576 21.2254541 -0.09926128 22.41918945 -0.10346031 C28.54573385 -0.12429298 34.672256 -0.13860972 40.79882812 -0.147995 C47.13089488 -0.15908425 53.46261264 -0.19352138 59.79455566 -0.23316669 C64.66211614 -0.25927473 69.52959245 -0.26768142 74.3972168 -0.27127647 C76.73203909 -0.27615346 79.06685736 -0.28779886 81.40161133 -0.30631447 C84.66451028 -0.33059295 87.92649201 -0.32976184 91.18945312 -0.32279968 C92.1547998 -0.33560974 93.12014648 -0.3484198 94.11474609 -0.36161804 C98.16225004 -0.33009407 100.82135899 -0.14458891 104.484375 1.67654419 C107.09102485 5.02406727 107.30529984 8.0486195 107.40820312 12.14717102 C107.44560797 13.2200748 107.44560797 13.2200748 107.48376846 14.3146534 C107.53805339 16.66948713 107.54341076 19.020496 107.53759766 21.37593079 C107.54022614 22.70750465 107.54022614 22.70750465 107.54290771 24.065979 C107.54729223 26.99019861 107.54439438 29.91435708 107.54101562 32.83857727 C107.541691 34.90522269 107.54266296 36.97186803 107.54391479 39.03851318 C107.54538834 43.38016004 107.54325328 47.72178633 107.53857422 52.06343079 C107.53295825 57.53168223 107.53622391 62.99988428 107.54198074 68.46813393 C107.57701477 106.82459481 107.57701477 106.82459481 107.13619614 124.54257011 C107.08938048 126.48761572 107.05511903 128.4329509 107.02127075 130.37826538 C106.98637543 131.5110643 106.9514801 132.64386322 106.91552734 133.81098938 C106.89013885 134.77935226 106.86475037 135.74771515 106.83859253 136.74542236 C106.33590612 139.55061781 105.63549529 140.42914546 103.40820312 142.14717102 C101.06640969 143.31806774 99.69706654 143.27291047 97.08778381 143.27415466 C96.18064133 143.27697449 95.27349884 143.27979431 94.33886719 143.28269958 C93.34089111 143.28067535 92.34291504 143.27865112 91.31469727 143.27656555 C89.74140907 143.27919403 89.74140907 143.27919403 88.13633728 143.28187561 C84.65532801 143.28629124 81.1743692 143.28335692 77.69335938 143.27998352 C75.28201793 143.28065669 72.87067654 143.28162683 70.45933533 143.28288269 C65.39939733 143.28435931 60.33947696 143.28220642 55.27954102 143.27754211 C48.78478878 143.27184791 42.2900779 143.27512212 35.79532719 143.28111458 C30.81375312 143.28472374 25.8321889 143.28357991 20.85061455 143.28098679 C18.45555046 143.28031834 16.06048549 143.28114306 13.66542244 143.28346634 C10.32062531 143.28599831 6.97589561 143.28214435 3.63110352 143.27656555 C2.63515167 143.27858978 1.63919983 143.28061401 0.61306763 143.28269958 C-0.29689468 143.27987976 -1.20685699 143.27705994 -2.14439392 143.27415466 C-3.3309931 143.27358912 -3.3309931 143.27358912 -4.54156399 143.27301216 C-6.59179688 143.14717102 -6.59179688 143.14717102 -9.59179688 142.14717102 C-9.59179688 141.48717102 -9.59179688 140.82717102 -9.59179688 140.14717102 C-10.14867188 139.89967102 -10.70554687 139.65217102 -11.27929688 139.39717102 C-14.01590601 137.91792284 -16.26830557 136.21249663 -18.59179688 134.14717102 C-18.59179688 133.48717102 -18.59179688 132.82717102 -18.59179688 132.14717102 C-19.44064453 131.77785461 -19.44064453 131.77785461 -20.30664062 131.40107727 C-22.98427946 129.93180878 -24.922233 128.16964667 -27.15429688 126.08467102 C-33.32498971 120.42515984 -39.73774999 115.06302668 -46.41601562 110.01045227 C-47.13402344 109.39556946 -47.85203125 108.78068665 -48.59179688 108.14717102 C-48.59179688 107.48717102 -48.59179688 106.82717102 -48.59179688 106.14717102 C-49.16929688 105.87904602 -49.74679688 105.61092102 -50.34179688 105.33467102 C-51.08429687 104.94279602 -51.82679687 104.55092102 -52.59179688 104.14717102 C-53.29304688 103.80685852 -53.99429688 103.46654602 -54.71679688 103.11592102 C-57.29681335 100.40690372 -57.00517855 98.47240715 -56.94335938 94.8405304 C-56.89308594 93.662005 -56.89308594 93.662005 -56.84179688 92.45967102 C-56.82375 91.66238586 -56.80570313 90.86510071 -56.78710938 90.0436554 C-56.74001934 88.07764653 -56.66827586 86.11225608 -56.59179688 84.14717102 C-57.34460937 84.19357727 -58.09742188 84.23998352 -58.87304688 84.28779602 C-72.15039563 84.73896807 -87.3084701 82.11235538 -97.75195312 73.33076477 C-100.874638 70.15841493 -103.01642386 67.49776833 -103.34179688 62.95967102 C-102.42951245 58.32222518 -101.35643131 56.95062219 -97.59179688 54.14717102 C-90.03244989 50.29877619 -83.01198017 49.98519398 -74.71679688 50.02217102 C-73.85699219 50.01830383 -72.9971875 50.01443665 -72.11132812 50.01045227 C-66.84833072 50.01843861 -61.79983364 50.38590347 -56.59179688 51.14717102 C-56.79804687 50.17779602 -57.00429688 49.20842102 -57.21679688 48.20967102 C-57.26197704 45.05351401 -56.59175885 44.14712739 -54.47070312 41.71357727 C-47.60375935 35.48449185 -47.60375935 35.48449185 -43.59179688 34.14717102 C-43.26179688 33.15717102 -42.93179688 32.16717102 -42.59179688 31.14717102 C-41.15429688 29.45967102 -41.15429688 29.45967102 -39.59179688 28.14717102 C-38.93179688 28.14717102 -38.27179688 28.14717102 -37.59179688 28.14717102 C-37.59179688 27.48717102 -37.59179688 26.82717102 -37.59179688 26.14717102 C-36.15820312 24.70185852 -36.15820312 24.70185852 -34.15429688 23.02217102 C-30.17558364 19.65338531 -26.31474078 16.17677283 -22.47460938 12.65107727 C-20.59179688 11.14717102 -20.59179688 11.14717102 -18.59179688 11.14717102 C-18.26179688 10.15717102 -17.93179688 9.16717102 -17.59179688 8.14717102 C-15.91992188 6.35810852 -15.91992188 6.35810852 -13.84179688 4.52217102 C-13.16632813 3.9111554 -12.49085937 3.30013977 -11.79492188 2.67060852 C-8.17402592 0.16679749 -4.31272401 0.02391758 0 0 Z M-95.59179688 61.14717102 C-95.59179688 63.88798093 -95.06552222 65.61337676 -93.23632812 67.67451477 C-87.19758265 72.73470021 -80.13793766 74.38910955 -72.59179688 76.14717102 C-71.75648437 76.34568665 -70.92117187 76.54420227 -70.06054688 76.74873352 C-67.10025933 77.22650145 -64.27634455 77.24260561 -61.27929688 77.20967102 C-58.46398438 77.17873352 -58.46398438 77.17873352 -55.59179688 77.14717102 C-56.08679687 68.23717102 -56.08679687 68.23717102 -56.59179688 59.14717102 C-65.53625996 54.67493948 -87.31044823 55.62627192 -95.59179688 61.14717102 Z M-39.59179688 66.14717102 C-42.18685904 69.84316864 -42.59179688 71.61054803 -42.59179688 76.14717102 C-39.2021058 75.7530209 -36.89412667 75.33432756 -33.96679688 73.52217102 C-31.59179688 72.14717102 -31.59179688 72.14717102 -29.27929688 72.45967102 C-28.72242187 72.68654602 -28.16554688 72.91342102 -27.59179688 73.14717102 C-27.77539062 75.47138977 -27.77539062 75.47138977 -28.59179688 78.14717102 C-30.87695312 79.72920227 -30.87695312 79.72920227 -33.65429688 80.95967102 C-34.57339844 81.37861633 -35.4925 81.79756165 -36.43945312 82.22920227 C-37.14972656 82.53213196 -37.86 82.83506165 -38.59179688 83.14717102 C-35.67607666 86.34057888 -33.59631793 87.07276205 -29.21679688 87.39717102 C-25.34306068 87.1300168 -23.63154115 86.49211661 -20.59179688 84.14717102 C-17.61871993 79.6875556 -17.97163978 75.37639688 -18.59179688 70.14717102 C-20.45367612 66.76820498 -21.75502677 65.57576059 -25.15429688 63.83467102 C-30.26954081 62.39190991 -34.94536173 63.81962716 -39.59179688 66.14717102 Z " fill="#BB0505" transform="translate(102.591796875,1.8528289794921875)"/>
<path d="M0 0 C3.96 19.14 7.92 38.28 12 58 C15.34791799 44.65711082 15.34791799 44.65711082 18.359375 31.25 C18.55347961 30.34040527 18.74758423 29.43081055 18.9475708 28.49365234 C19.55101057 25.6629868 20.15059479 22.83152228 20.75 20 C21.16510592 18.0494241 21.58046897 16.09890291 21.99609375 14.1484375 C23.00082445 9.43300814 24.00030483 4.71651053 25 0 C34.9 -0.33 44.8 -0.66 55 -1 C55 29.03 55 59.06 55 90 C49.06 89.67 43.12 89.34 37 89 C36.505 60.29 36.505 60.29 36 31 C32.13901519 47.46843781 32.13901519 47.46843781 28.28173828 63.93774414 C27.79473 66.01191289 27.30759644 68.08605224 26.8203125 70.16015625 C26.57144287 71.22552612 26.32257324 72.290896 26.06616211 73.3885498 C25.39010115 76.26231239 24.70189384 79.13244781 24 82 C23.81870544 82.74402069 23.63741089 83.48804138 23.45062256 84.25460815 C23.0328922 85.85504426 22.52700254 87.4321471 22 89 C16.03715206 91.98142397 8.65640235 89.36980013 2 89 C-2.62 69.2 -7.24 49.4 -12 29 C-12 48.8 -12 68.6 -12 89 C-17.94 89 -23.88 89 -30 89 C-30 59.63 -30 30.26 -30 0 C-5 -1 -5 -1 0 0 Z " fill="#B90707" transform="translate(714,33)"/>
<path d="M0 0 C1.084021 0.00523682 2.16804199 0.01047363 3.28491211 0.01586914 C5.03964844 0.02070313 5.03964844 0.02070313 6.82983398 0.02563477 C8.67738281 0.03820312 8.67738281 0.03820312 10.56225586 0.05102539 C12.41560547 0.05779297 12.41560547 0.05779297 14.30639648 0.06469727 C17.37089703 0.07652931 20.43530307 0.09301366 23.49975586 0.11352539 C23.50855522 1.33928787 23.50855522 1.33928787 23.51753235 2.58981323 C23.57566996 10.32759071 23.64786541 18.0650539 23.73547077 25.80254936 C23.78001362 29.77955943 23.81930406 33.75647085 23.84619141 37.73364258 C23.87238636 41.57882189 23.9129 45.42361824 23.96294212 49.2685585 C23.97950227 50.72835618 23.9910836 52.18821992 23.99736977 53.64809799 C23.90206008 65.73193795 23.90206008 65.73193795 27.49975586 77.11352539 C30.38235671 78.67493418 31.38665452 78.96152948 34.49975586 79.11352539 C35.38791992 79.17926758 36.27608398 79.24500977 37.19116211 79.31274414 C42.68619292 79.52955488 46.8511689 79.36753626 51.49975586 76.11352539 C55.25497016 71.96984064 55.62905068 68.32452157 55.68920898 62.86962891 C55.71428528 60.93731163 55.71428528 60.93731163 55.73986816 58.96595764 C55.74655014 58.27787584 55.75323212 57.58979404 55.76011658 56.88086128 C55.78118076 54.72452724 55.80820114 52.56834066 55.83679199 50.41209412 C55.89643668 45.83346147 55.94860953 41.25475981 55.99975586 36.67602539 C56.05903911 31.37329808 56.1213862 26.07064357 56.19163513 20.76804924 C56.21815637 18.64540329 56.23900363 16.52274977 56.25964355 14.40003967 C56.28471985 12.46299416 56.28471985 12.46299416 56.31030273 10.48681641 C56.32283081 9.35002945 56.33535889 8.21324249 56.3482666 7.04200745 C56.49975586 4.11352539 56.49975586 4.11352539 57.49975586 0.11352539 C65.74975586 0.11352539 73.99975586 0.11352539 82.49975586 0.11352539 C83.41572796 3.77741379 83.60701777 6.44110278 83.5690918 10.17626953 C83.55867859 11.40177017 83.54826538 12.62727081 83.53753662 13.88990784 C83.52027246 15.22617283 83.50245638 16.56243078 83.48413086 17.89868164 C83.46741658 19.27908771 83.45075483 20.65949442 83.43414307 22.03990173 C83.39769205 24.93585059 83.35648933 27.83169179 83.31274414 30.72753906 C83.25806875 34.40989122 83.22132706 38.09218126 83.18911362 41.77478886 C83.16101172 44.62941319 83.11994413 47.48375092 83.07550812 50.33816338 C83.04735736 52.34684296 83.03238463 54.3556936 83.01776123 56.36451721 C82.79336491 68.52466747 80.81078963 80.67987098 72.24975586 89.86352539 C62.54475086 98.92841304 48.62608728 100.44825649 35.82006836 100.26977539 C24.37819926 99.49927916 13.80823048 95.91534855 5.87475586 87.42602539 C-6.4712494 72.51815591 -3.79398682 50.78522714 -3.70605469 32.60839844 C-3.68754272 28.63276839 -3.68554721 24.65755398 -3.68579102 20.68188477 C-3.68088406 18.16039836 -3.67505937 15.63891353 -3.66821289 13.11743164 C-3.66710007 11.92598038 -3.66598724 10.73452911 -3.6648407 9.50697327 C-3.65846085 8.417509 -3.65208099 7.32804474 -3.64550781 6.20556641 C-3.64169601 5.24344742 -3.63788422 4.28132843 -3.63395691 3.29005432 C-3.44110674 0.15090787 -3.15997758 0.14348106 0 0 Z " fill="#FEFDFD" transform="translate(104.500244140625,24.886474609375)"/>
<path d="M0 0 C54.43627751 0 54.43627751 0 66.8125 11.125 C75.08578033 20.09434958 78.40148996 31.83308338 78.3125 43.75 C78.30512817 44.92852539 78.30512817 44.92852539 78.29760742 46.13085938 C78.04569672 58.749648 74.35742375 71.03898573 65.65625 80.47265625 C48.40296398 96.38311577 20.54980221 91 0 91 C0 60.97 0 30.94 0 0 Z M19 17 C19 36.14 19 55.28 19 75 C37.91047445 75.57765805 37.91047445 75.57765805 52.6875 66.375 C59.37890961 57.61141193 59.05953867 45.50542585 58 35 C56.66913655 28.56749331 54.05294962 24.29434756 48.9765625 20.15625 C39.34170503 14.52004879 30.85475401 17 19 17 Z " fill="#FEFEFE" transform="translate(221,31)"/>
<path d="M0 0 C2.68437181 2.30089012 5.19748096 4.67968572 7.625 7.25 C7.83125 6.6725 8.0375 6.095 8.25 5.5 C10.81317936 1.3057065 14.83418536 -0.69345034 19.4375 -2.0625 C26.41228211 -3.53716822 32.69453052 -2.33658558 38.90234375 1.08203125 C43.07382455 3.91031415 45.0363767 7.59592605 46.625 12.25 C46.86550903 14.82539368 46.86550903 14.82539368 46.85205078 17.59106445 C46.85189972 18.6317659 46.85174866 19.67246735 46.85159302 20.7447052 C46.84127045 21.8563353 46.83094788 22.96796539 46.8203125 24.11328125 C46.8174826 25.26040085 46.81465271 26.40752045 46.81173706 27.58940125 C46.80055697 31.24720768 46.77545595 34.90476778 46.75 38.5625 C46.73996741 41.04491833 46.73084205 43.52734051 46.72265625 46.00976562 C46.70062471 52.08992756 46.66716848 58.16994618 46.625 64.25 C43.81243719 64.27684312 41.00012759 64.29676188 38.1875 64.3125 C37.38505859 64.32087891 36.58261719 64.32925781 35.75585938 64.33789062 C33.71204779 64.3465143 31.66816098 64.3022815 29.625 64.25 C27.44805707 62.07305707 28.41333689 56.95555856 28.37890625 53.921875 C28.34595683 51.98827691 28.31274538 50.05468327 28.27929688 48.12109375 C28.23193633 45.06204416 28.18753873 42.00301121 28.14819336 38.94384766 C28.10840864 35.99882542 28.05686539 33.05418568 28.00390625 30.109375 C27.9954921 29.19774597 27.98707794 28.28611694 27.97840881 27.34686279 C27.87070381 21.06413447 27.87070381 21.06413447 25.625 15.25 C22.40097554 13.63798777 19.11107133 13.65563152 15.625 14.25 C12.753416 16.38841361 11.02061851 17.87825823 10.01586914 21.36206055 C9.47858998 25.33175152 9.38944212 29.2675247 9.30859375 33.26953125 C9.28781265 34.12810226 9.26703156 34.98667328 9.24562073 35.8712616 C9.18047477 38.60159654 9.12140346 41.33202395 9.0625 44.0625 C9.0192815 45.91862918 8.97566616 47.77474916 8.93164062 49.63085938 C8.82482939 54.17047925 8.72346435 58.71019172 8.625 63.25 C5.81280295 63.44384179 3.00045804 63.63036603 0.1875 63.8125 C-1.01616211 63.89661133 -1.01616211 63.89661133 -2.24414062 63.98242188 C-4.28562111 64.1116295 -6.33046369 64.1851273 -8.375 64.25 C-10.49785608 62.12714392 -9.58576881 57.3728872 -9.62109375 54.4296875 C-9.65405554 52.59634981 -9.68726676 50.76301659 -9.72070312 48.9296875 C-9.76796512 46.03323714 -9.81233919 43.13680178 -9.85180664 40.24023438 C-9.89174268 37.44901582 -9.94326058 34.65818767 -9.99609375 31.8671875 C-10.0045079 31.0096286 -10.01292206 30.1520697 -10.02159119 29.26852417 C-10.12360541 24.25979536 -10.52466186 19.9355891 -12.375 15.25 C-16.00332946 13.53852384 -18.19582846 12.98200647 -22.125 13.875 C-24.73764911 15.4716189 -25.91552718 16.54997529 -27.375 19.25 C-28.32507391 24.51798744 -28.57611296 29.69331844 -28.69140625 35.02734375 C-28.71218735 35.83869278 -28.73296844 36.65004181 -28.75437927 37.48597717 C-28.81925643 40.05307339 -28.87846922 42.62026337 -28.9375 45.1875 C-28.98074418 46.93816036 -29.02436026 48.68881158 -29.06835938 50.43945312 C-29.1748735 54.70954171 -29.27631114 58.97972368 -29.375 63.25 C-32.18719705 63.44384179 -34.99954196 63.63036603 -37.8125 63.8125 C-39.01616211 63.89661133 -39.01616211 63.89661133 -40.24414062 63.98242188 C-42.28562111 64.1116295 -44.33046369 64.1851273 -46.375 64.25 C-48.16596045 62.45903955 -47.50266791 59.78667215 -47.50439453 57.36914062 C-47.50754669 56.11113647 -47.51069885 54.85313232 -47.51394653 53.55700684 C-47.51215675 52.17342087 -47.5101058 50.78983522 -47.5078125 49.40625 C-47.50848559 47.99759911 -47.50945565 46.58894834 -47.51071167 45.18029785 C-47.51218842 42.22451677 -47.51003483 39.26876586 -47.50537109 36.31298828 C-47.49967381 32.51625416 -47.50295293 28.71959072 -47.50894356 24.92285919 C-47.51254979 22.01303572 -47.5114103 19.10322912 -47.50881577 16.19340515 C-47.50814667 14.793106 -47.50897432 13.39280533 -47.51129532 11.99250793 C-47.51382283 10.03862536 -47.50929033 8.08473745 -47.50439453 6.13085938 C-47.50359894 5.01690796 -47.50280334 3.90295654 -47.50198364 2.75524902 C-47.375 0.25 -47.375 0.25 -46.375 -0.75 C-43.67845146 -0.82319621 -41.00808542 -0.84242537 -38.3125 -0.8125 C-37.55388672 -0.80798828 -36.79527344 -0.80347656 -36.01367188 -0.79882812 C-34.13408129 -0.7870068 -32.25453101 -0.76907078 -30.375 -0.75 C-30.045 0.9 -29.715 2.55 -29.375 4.25 C-28.385 3.59 -27.395 2.93 -26.375 2.25 C-17.95041518 -2.89835739 -9.23362218 -4.78780409 0 0 Z " fill="#FEFEFE" transform="translate(419.375,57.75)"/>
<path d="M0 0 C18.81 0 37.62 0 57 0 C57 5.61 57 11.22 57 17 C53.81714304 18.59142848 50.4129558 18.00008284 46.9296875 17.87890625 C46.13345978 17.85529526 45.33723206 17.83168427 44.51687622 17.80735779 C41.96940471 17.73067789 39.4222339 17.64667239 36.875 17.5625 C35.14975438 17.50928363 33.42449402 17.4565432 31.69921875 17.40429688 C27.46589971 17.27595275 23.23306624 17.13771237 19 17 C19.33 22.94 19.66 28.88 20 35 C22.37058594 34.98839844 24.74117187 34.97679687 27.18359375 34.96484375 C29.47045762 34.95705304 31.75732004 34.95097636 34.04418945 34.94506836 C35.63794614 34.94002843 37.23169819 34.9331965 38.82543945 34.92456055 C41.11150253 34.91248001 43.39750467 34.90676845 45.68359375 34.90234375 C46.40026718 34.89718246 47.11694061 34.89202118 47.85533142 34.88670349 C49.57063672 34.88650737 51.28581266 34.93807993 53 35 C57.01386486 39.01386486 54 46.32353788 54 52 C42.45 52 30.9 52 19 52 C19 58.93 19 65.86 19 73 C31.87 73 44.74 73 58 73 C58 78.28 58 83.56 58 89 C29.29 89.495 29.29 89.495 0 90 C0 60.3 0 30.6 0 0 Z " fill="#BB0505" transform="translate(779,33)"/>
<path d="M0 0 C6.27 0 12.54 0 19 0 C19.02255012 11.45650367 19.04091456 22.91299271 19.05181217 34.36951351 C19.05704122 39.68865213 19.06413927 45.00777484 19.07543945 50.3269043 C19.08626755 55.45563985 19.09227667 60.58436006 19.09487724 65.71310616 C19.09673163 67.67441614 19.10035251 69.63572524 19.10573006 71.59702873 C19.11293946 74.33415447 19.11399099 77.07121597 19.11352539 79.80834961 C19.11712067 80.62761932 19.12071594 81.44688904 19.12442017 82.29098511 C19.11405216 87.88594784 19.11405216 87.88594784 18 89 C15.46950598 89.07313567 12.96695163 89.09247527 10.4375 89.0625 C9.37112305 89.05573242 9.37112305 89.05573242 8.28320312 89.04882812 C6.52209987 89.03700864 4.76103964 89.01907263 3 89 C2.34 87.02 1.68 85.04 1 83 C0.48050781 83.40992187 -0.03898438 83.81984375 -0.57421875 84.2421875 C-1.27160156 84.78101562 -1.96898437 85.31984375 -2.6875 85.875 C-3.37199219 86.40867187 -4.05648437 86.94234375 -4.76171875 87.4921875 C-11.08571493 91.75233152 -17.84688925 92.00148795 -25.2109375 90.5703125 C-31.98078544 88.40289083 -37.14934807 84.06702403 -40.80078125 78.015625 C-46.35109291 67.15343989 -48.11098777 55.46400648 -44.8125 43.5 C-42.08645948 35.94316209 -37.89797778 29.35807852 -31 25 C-24.45737142 22.35395077 -16.52242313 21.41167492 -9.7421875 23.79296875 C-7.9375 24.8125 -7.9375 24.8125 -5 27 C-4.21625 27.556875 -3.4325 28.11375 -2.625 28.6875 C-1 30 -1 30 0 31 C0 20.77 0 10.54 0 0 Z M-23 41 C-28.07898703 47.69649882 -28.81196784 54.84648965 -28 63 C-26.35755994 68.38256172 -23.74029032 71.88138795 -19 75 C-15.50226791 76.74886605 -11.72143243 75.83200136 -8 75 C-3.68510264 72.37354073 -0.93811471 69.04235811 0.5625 64.17578125 C1.98395701 57.10657095 1.72935145 50.21558575 -2 44 C-5.36342627 40.5558515 -8.37013315 38.12537437 -13.25 37.75 C-17.43459897 38.02897326 -19.55225481 38.62488665 -23 41 Z " fill="#FEFEFE" transform="translate(653,33)"/>
<path d="M0 0 C5.79279976 4.82733313 7.5018514 10.00824094 8.625 17.1875 C8.86618368 20.69373876 8.85990311 24.17825155 8.8203125 27.69140625 C8.8174826 28.6552977 8.81465271 29.61918915 8.81173706 30.61228943 C8.80063848 33.65832506 8.77555364 36.70405486 8.75 39.75 C8.73995684 41.82877176 8.73083334 43.90754818 8.72265625 45.98632812 C8.70073305 51.05350131 8.66627556 56.120449 8.625 61.1875 C3.015 61.1875 -2.595 61.1875 -8.375 61.1875 C-8.375 59.2075 -8.375 57.2275 -8.375 55.1875 C-8.96667969 55.59742188 -9.55835938 56.00734375 -10.16796875 56.4296875 C-11.35326172 57.23792969 -11.35326172 57.23792969 -12.5625 58.0625 C-13.33980469 58.59617188 -14.11710937 59.12984375 -14.91796875 59.6796875 C-21.8283407 63.9203927 -28.42194829 63.90723319 -36.375 63.1875 C-42.34172211 61.55684303 -45.95152242 58.22202585 -49.375 53.1875 C-51.91155308 47.75202912 -52.50267671 41.76274776 -50.6875 36.0078125 C-48.21605158 30.55003056 -44.84903118 26.71236101 -39.328125 24.2890625 C-32.7028287 22.04357617 -25.8328975 21.36665739 -18.9140625 20.6171875 C-16.28904472 20.29847673 -13.9015256 19.92602287 -11.375 19.1875 C-11.55629815 15.74956661 -11.55629815 15.74956661 -12.375 12.1875 C-15.17455815 10.26744906 -17.52591697 9.91456108 -20.875 9.9375 C-21.6278125 9.93234375 -22.380625 9.9271875 -23.15625 9.921875 C-25.67382813 10.2232752 -27.24872435 10.81113662 -29.375 12.1875 C-30.39122658 14.17930409 -31.39212992 16.17902635 -32.375 18.1875 C-35.75896741 19.31548914 -37.90390963 19.13022259 -41.4375 18.8125 C-43.03271484 18.67714844 -43.03271484 18.67714844 -44.66015625 18.5390625 C-47.375 18.1875 -47.375 18.1875 -49.375 17.1875 C-47.07905223 3.86496098 -47.07905223 3.86496098 -41.2890625 -0.3203125 C-28.89890274 -7.52389376 -12.44865145 -6.68538689 0 0 Z M-14.3125 32.0625 C-18.17412504 33.20343467 -22.07143023 33.88314144 -26.04296875 34.52734375 C-28.78766164 35.30431711 -30.34706512 36.17787605 -32.375 38.1875 C-33.00463937 40.35297803 -33.00463937 40.35297803 -32.875 42.6875 C-32.8853125 43.4609375 -32.895625 44.234375 -32.90625 45.03125 C-32.53329423 47.32335411 -32.53329423 47.32335411 -30.6484375 48.97265625 C-26.62109293 51.12472525 -22.68858554 50.2080644 -18.375 49.1875 C-15.21144798 47.70256742 -12.84593179 45.65843179 -10.375 43.1875 C-10.13160449 40.28866917 -10.13160449 40.28866917 -10.25 37.0625 C-10.26804687 35.96679688 -10.28609375 34.87109375 -10.3046875 33.7421875 C-10.32789063 32.89914063 -10.35109375 32.05609375 -10.375 31.1875 C-11.72611071 31.13992057 -11.72611071 31.13992057 -14.3125 32.0625 Z " fill="#FEFEFE" transform="translate(523.375,59.8125)"/>
<path d="M0 0 C6.27129556 5.62299707 8.48530764 12.51638196 10.1015625 20.59765625 C10.1015625 24.88765625 10.1015625 29.17765625 10.1015625 33.59765625 C-3.7584375 33.59765625 -17.6184375 33.59765625 -31.8984375 33.59765625 C-29.92565378 43.04453979 -29.92565378 43.04453979 -25.8984375 46.59765625 C-21.70644463 47.83798373 -18.04730848 48.09716537 -14.0234375 46.34765625 C-11.9281735 44.72073687 -11.9281735 44.72073687 -10.51635742 43.0065918 C-8.4923445 41.2440177 -7.53456273 41.2449617 -4.88671875 41.3046875 C-4.12939453 41.31435547 -3.37207031 41.32402344 -2.59179688 41.33398438 C-1.80611328 41.35912109 -1.02042969 41.38425781 -0.2109375 41.41015625 C0.98499023 41.43045898 0.98499023 41.43045898 2.20507812 41.45117188 C4.17086217 41.48648536 6.13629832 41.54029178 8.1015625 41.59765625 C9.1015625 44.59765625 9.1015625 44.59765625 8.1328125 46.6484375 C3.24546059 53.86725575 -1.62165892 59.65214548 -10.24609375 62.12890625 C-18.66328633 63.61648079 -28.25229403 63.86294897 -35.8984375 59.59765625 C-43.83247959 53.99488302 -48.52344325 47.52149317 -50.578125 37.9765625 C-52.13280122 26.43024767 -51.03436853 14.62032088 -44.6484375 4.59765625 C-39.70755203 -1.43621298 -33.4969253 -4.0793872 -25.8984375 -5.1875 C-16.97917908 -5.82624898 -7.40388179 -5.46912256 0 0 Z M-28.8984375 13.59765625 C-31.08546112 16.58658854 -31.8984375 17.87710079 -31.8984375 21.59765625 C-23.9784375 21.59765625 -16.0584375 21.59765625 -7.8984375 21.59765625 C-8.98604141 16.15963669 -9.85008511 15.08112226 -13.8984375 11.59765625 C-19.64800692 7.82450132 -23.78813097 9.4871923 -28.8984375 13.59765625 Z " fill="#FEFEFE" transform="translate(354.8984375,59.40234375)"/>
<path d="M0 0 C5.5822214 3.44641495 8.78381916 7.99702415 10.375 14.375 C10.64078656 18.2182946 10.60771713 22.04758526 10.5703125 25.8984375 C10.5674826 26.99975006 10.56465271 28.10106262 10.56173706 29.23574829 C10.55057478 32.74061108 10.52547711 36.24521492 10.5 39.75 C10.48996511 42.13150672 10.48084015 44.51301745 10.47265625 46.89453125 C10.45064832 52.72145339 10.41614537 58.54818284 10.375 64.375 C4.435 64.375 -1.505 64.375 -7.625 64.375 C-7.654729 62.46037964 -7.654729 62.46037964 -7.68505859 60.50708008 C-7.76122663 55.76388074 -7.849927 51.02098368 -7.94238281 46.27807617 C-7.98062625 44.22670466 -8.01548719 42.17526716 -8.046875 40.1237793 C-8.09262602 37.17212362 -8.15060422 34.22092047 -8.2109375 31.26953125 C-8.22248871 30.35476517 -8.23403992 29.43999908 -8.24594116 28.49751282 C-8.35779737 22.19087456 -8.35779737 22.19087456 -10.625 16.375 C-13.73486207 14.30175862 -14.51608387 14.10107814 -18.0625 14.125 C-18.82433594 14.11984375 -19.58617187 14.1146875 -20.37109375 14.109375 C-22.94583824 14.41281109 -24.43087952 14.99627099 -26.625 16.375 C-29.78866999 22.01193371 -30.08667309 28.46769072 -30.13671875 34.78515625 C-30.15466995 35.63806747 -30.17262115 36.4909787 -30.19111633 37.36973572 C-30.24473167 40.05894211 -30.27895636 42.74797616 -30.3125 45.4375 C-30.3457163 47.27541437 -30.38020986 49.11330613 -30.41601562 50.95117188 C-30.50280362 55.42579932 -30.56328609 59.89967773 -30.625 64.375 C-36.565 64.375 -42.505 64.375 -48.625 64.375 C-48.64755403 56.04770649 -48.66591682 47.72043656 -48.67681217 39.39312077 C-48.68204026 35.52679882 -48.68913654 31.66049879 -48.70043945 27.79418945 C-48.711271 24.06596599 -48.7172774 20.33776366 -48.71987724 16.60952568 C-48.72173101 15.18410344 -48.72535071 13.75868241 -48.73073006 12.33326912 C-48.73794393 10.34336592 -48.73840808 8.35344166 -48.73852539 6.36352539 C-48.740746 5.22879288 -48.74296661 4.09406036 -48.74525452 2.92494202 C-48.625 0.375 -48.625 0.375 -47.625 -0.625 C-45.31425832 -0.72432392 -43.00037058 -0.75469618 -40.6875 -0.75 C-39.42035156 -0.75257812 -38.15320313 -0.75515625 -36.84765625 -0.7578125 C-33.625 -0.625 -33.625 -0.625 -31.625 0.375 C-31 2.9375 -31 2.9375 -30.625 5.375 C-29.738125 4.59125 -28.85125 3.8075 -27.9375 3 C-20.87796415 -3.23865958 -8.46086317 -3.88261408 0 0 Z " fill="#FEFEFD" transform="translate(587.625,57.625)"/>
<path d="M0 0 C0.33 0 0.66 0 1 0 C1 10.56 1 21.12 1 32 C0.67 32 0.34 32 0 32 C0 26.39 0 20.78 0 15 C-19.36951214 12.87179192 -19.36951214 12.87179192 -38 17 C-37.8921107 20.7761256 -37.08144636 21.92234185 -34.3125 24.5625 C-24.10033648 31.29276161 -10.6680044 32.20880754 1.1875 32.3125 C2.27353516 32.34150391 3.35957031 32.37050781 4.47851562 32.40039062 C10.97663811 32.45112672 15.96083473 31.71505552 21.87231445 28.96166992 C23.94888163 28.02310445 25.73875369 27.30279478 28 27 C30 29 30 29 30.125 31.3125 C28.36348874 35.52055469 25.06085259 37.16003847 21 39 C18.62592435 39.57882225 16.44760275 39.80019569 14 40 C13.67 40.33 13.34 40.66 13 41 C8.99779347 41.14355117 5.00558317 41.04216403 1 41 C1 46.28 1 51.56 1 57 C0.67 57 0.34 57 0 57 C0 51.39 0 45.78 0 40 C-1.815 40.0825 -3.63 40.165 -5.5 40.25 C-17.72465811 40.23666886 -31.6357415 37.19236926 -41.16015625 29.18359375 C-44.28284113 26.01124391 -46.42462699 23.35059731 -46.75 18.8125 C-45.83771557 14.17505416 -44.76463443 12.80345117 -41 10 C-33.44065301 6.15160517 -26.42018329 5.83802296 -18.125 5.875 C-17.26519531 5.87113281 -16.40539062 5.86726563 -15.51953125 5.86328125 C-10.25653385 5.87126759 -5.20803676 6.23873245 0 7 C0 4.69 0 2.38 0 0 Z " fill="#FBF6F6" transform="translate(46,46)"/>
<path d="M0 0 C-0.33 0.99 -0.66 1.98 -1 3 C-5.29 2.34 -9.58 1.68 -14 1 C-14 0.67 -14 0.34 -14 0 C-4.58997722 -1.33257403 -4.58997722 -1.33257403 0 0 Z " fill="#943237" transform="translate(714,33)"/>
<path d="M0 0 C0.99 0.495 0.99 0.495 2 1 C1.01 1.495 1.01 1.495 0 2 C0 1.34 0 0.68 0 0 Z " fill="#DDFFFF" transform="translate(48,108)"/>
<path d="" fill="#F9ECDB" transform="translate(0,0)"/>
<path d="" fill="#DEFFFB" transform="translate(0,0)"/>
<path d="" fill="#DEFFF5" transform="translate(0,0)"/>
<path d="" fill="#E2DACF" transform="translate(0,0)"/>
<path d="" fill="#DAFAEF" transform="translate(0,0)"/>
<path d="" fill="#DBFDEC" transform="translate(0,0)"/>
<path d="" fill="#FFEADE" transform="translate(0,0)"/>
<path d="" fill="#DEF8EF" transform="translate(0,0)"/>
<path d="" fill="#FFDDE5" transform="translate(0,0)"/>
</svg>
